<?xml version="1.0" encoding="utf-8"?>
<!-- Generator: Adobe Illustrator 13.0.0, SVG Export Plug-In . SVG Version: 6.00 Build 14948)  -->
<!DOCTYPE svg PUBLIC "-//W3C//DTD SVG 1.1//EN" "http://www.w3.org/Graphics/SVG/1.1/DTD/svg11.dtd">
<svg version="1.1" id="Ebene_1" xmlns="http://www.w3.org/2000/svg" xmlns:xlink="http://www.w3.org/1999/xlink" x="0px" y="0px"
	 width="78.3px" height="67.8px" viewBox="0 0 78.3 67.8" enable-background="new 0 0 78.3 67.8" xml:space="preserve">
<g>
	<g>
		<path fill="#435676" d="M78.3,33.9L58.8,0H19.6L0,33.9l19.6,33.9h39.2L78.3,33.9z"/>
	</g>
</g>
<g>
	<g>
		<path fill="#FFFFFF" d="M51.2,56.6L40.3,37.9H5.5l10.9,18.7H51.2z"/>
	</g>
</g>
<g>
	<g>
		<path fill="#102E58" d="M46.4,39.2l15-22.8L56,6.1h-8.7L31.1,31.3v0.5L34,42.9L46.4,39.2z"/>
	</g>
</g>
<g>
	<g>
		<path fill="#F5F1AE" d="M46.4,39.2c-1.4-0.3-2.6-0.9-3.9-1.7C40,35.9,39,34,39.4,31.8c-1.7,1.6-3.4,2.1-5.4,1.5
			c-1.5-0.4-2.4-1-2.9-2L33,44.4L46.4,39.2z"/>
	</g>
</g>
<g>
	<g>
		<path fill="#222222" d="M37,41.8c-2.1-0.4-3.7-1.6-4.9-3.6l0.9,6.2l1.9-0.6c1.5-0.6,3.1-1.3,4.9-2C39,42,38,42,37,41.8z"/>
	</g>
</g>
<g>
	<g>
		<path fill="none" stroke="#222222" stroke-width="1.4" stroke-linecap="round" stroke-linejoin="round" d="M33.6,42.9
			c-2.8,4.3-5.2,6-7.2,5c-0.8-0.2-1.5-0.9-2.2-1.9c-0.8-1-1.3-1.7-1.6-2c-1.6-1.7-3.1-2.5-4.4-2.2c-1.4,0.3-2.8,1.9-4.1,4.7"/>
	</g>
</g>
</svg>